<svg height="512pt" viewBox="0 -45 512 511" width="512pt" xmlns="http://www.w3.org/2000/svg"><path d="m393.53125 223.738281c0 76.179688-61.753906 137.933594-137.929688 137.933594-76.179687 0-137.933593-61.753906-137.933593-137.933594 0-76.175781 61.753906-137.929687 137.933593-137.929687 76.175782 0 137.929688 61.753906 137.929688 137.929687zm0 0" fill="#fab03c"/><path d="m393.53125 223.734375c0 76.179687-61.75 137.929687-137.929688 137.929687-76.179687 0-137.929687-61.75-137.929687-137.929687 0-25.117187 6.71875-48.667969 18.457031-68.957031 23.839844 41.230468 68.421875 68.957031 119.472656 68.957031 51.046876 0 95.628907-27.726563 119.46875-68.957031 11.738282 20.289062 18.460938 43.839844 18.460938 68.957031zm0 0" fill="#fd8f3e"/><path d="m504.5 265.226562v137.019532c0 11.046875-8.953125 20-20 20h-457c-11.046875 0-20-8.953125-20-20v-137.019532zm0 0" fill="#38aaff"/><path d="m504.5 345.734375v56.511719c0 11.046875-8.953125 20-20 20h-457c-11.046875 0-20-8.953125-20-20v-56.511719zm0 0" fill="#2081f6"/><path d="m7.5 265.226562h497v32.550782h-497zm0 0" fill="#a0ecff"/><path d="m387.179688 265.226562c-3.648438 11.589844-8.789063 22.507813-15.191407 32.550782-12.839843 20.148437-30.777343 36.738281-52 47.957031-19.21875 10.171875-41.136719 15.929687-64.386719 15.929687s-45.171874-5.757812-64.390624-15.929687c-21.222657-11.21875-39.160157-27.808594-52-47.957031-6.402344-10.042969-11.539063-20.960938-15.191407-32.550782zm0 0" fill="#f6cb43"/><path d="m319.988281 345.734375c-19.21875 10.171875-41.136719 15.929687-64.386719 15.929687s-45.171874-5.757812-64.390624-15.929687zm0 0" fill="#fab03c"/><path d="m387.179688 265.226562c-3.648438 11.589844-8.789063 22.507813-15.191407 32.550782h-232.777343c-6.402344-10.042969-11.539063-20.960938-15.191407-32.550782zm0 0" fill="#f8e98e"/><path d="m269.539062 94.0625c21.273438 2.257812 41.851563 9.828125 59.507813 21.882812 1.296875.882813 2.765625 1.308594 4.222656 1.308594 2.394531 0 4.75-1.148437 6.203125-3.273437 2.335938-3.421875 1.453125-8.085938-1.964844-10.421875-19.699218-13.449219-42.65625-21.890625-66.386718-24.414063-4.113282-.429687-7.8125 2.546875-8.25 6.667969-.4375 4.117188 2.546875 7.8125 6.667968 8.25zm0 0"/><path d="m255.601562 45.207031c4.140626 0 7.5-3.355469 7.5-7.5v-29.707031c0-4.144531-3.359374-7.5-7.5-7.5-4.144531 0-7.5 3.355469-7.5 7.5v29.707031c0 4.144531 3.355469 7.5 7.5 7.5zm0 0"/><path d="m156.089844 66.382812c1.386718 2.40625 3.910156 3.75 6.5 3.75 1.273437 0 2.5625-.324218 3.746094-1.003906 3.585937-2.074218 4.8125-6.660156 2.742187-10.246094l-14.851563-25.730468c-2.070312-3.585938-6.660156-4.8125-10.246093-2.746094-3.585938 2.074219-4.816407 6.660156-2.746094 10.246094zm0 0"/><path d="m65.015625 122.363281 25.726563 14.855469c1.183593.679688 2.472656 1.003906 3.742187 1.003906 2.59375 0 5.113281-1.34375 6.503906-3.75 2.070313-3.585937.839844-8.171875-2.746093-10.246094l-25.726563-14.851562c-3.589844-2.070312-8.175781-.84375-10.246094 2.742188-2.070312 3.589843-.84375 8.175781 2.746094 10.246093zm0 0"/><path d="m434.128906 223.738281c0 4.144531 3.359375 7.5 7.5 7.5h29.710938c4.140625 0 7.5-3.355469 7.5-7.5 0-4.140625-3.359375-7.5-7.5-7.5h-29.710938c-4.140625 0-7.5 3.359375-7.5 7.5zm0 0"/><path d="m39.859375 231.238281h29.710937c4.140626 0 7.5-3.355469 7.5-7.5 0-4.140625-3.359374-7.5-7.5-7.5h-29.710937c-4.140625 0-7.5 3.359375-7.5 7.5 0 4.144531 3.359375 7.5 7.5 7.5zm0 0"/><path d="m416.714844 138.226562c1.269531 0 2.5625-.324218 3.742187-1.007812l25.730469-14.855469c3.585938-2.070312 4.816406-6.65625 2.742188-10.242187-2.070313-3.589844-6.65625-4.816406-10.242188-2.746094l-25.730469 14.855469c-3.585937 2.070312-4.816406 6.65625-2.746093 10.242187 1.390624 2.40625 3.910156 3.753906 6.503906 3.753906zm0 0"/><path d="m344.863281 69.128906c1.183594.679688 2.472657 1.003906 3.746094 1.003906 2.589844 0 5.113281-1.34375 6.5-3.75l14.855469-25.730468c2.070312-3.585938.839844-8.171875-2.746094-10.246094-3.585938-2.070312-8.171875-.839844-10.246094 2.746094l-14.851562 25.730468c-2.070313 3.585938-.84375 8.171876 2.742187 10.246094zm0 0"/><path d="m191.210938 290.277344h-121.640626c-4.144531 0-7.5 3.359375-7.5 7.5 0 4.144531 3.355469 7.5 7.5 7.5h121.640626c4.140624 0 7.5-3.355469 7.5-7.5 0-4.140625-3.359376-7.5-7.5-7.5zm0 0"/><path d="m379.9375 315.621094h-81.9375c-4.140625 0-7.5 3.359375-7.5 7.5 0 4.144531 3.359375 7.5 7.5 7.5h81.9375c4.140625 0 7.5-3.355469 7.5-7.5 0-4.140625-3.355469-7.5-7.5-7.5zm0 0"/><path d="m423.601562 338.234375h-25.636718c-4.140625 0-7.5 3.359375-7.5 7.5 0 4.144531 3.359375 7.5 7.5 7.5h25.636718c4.140626 0 7.5-3.355469 7.5-7.5 0-4.140625-3.359374-7.5-7.5-7.5zm0 0"/><path d="m504.5 257.726562h-107.484375c2.65625-11.085937 4.015625-22.476562 4.015625-33.988281 0-36.105469-13.328125-70.730469-37.523438-97.496093-2.777343-3.070313-7.519531-3.308594-10.59375-.53125-3.070312 2.777343-3.3125 7.519531-.53125 10.59375 21.699219 24 33.648438 55.054687 33.648438 87.433593 0 11.546875-1.503906 22.957031-4.472656 33.988281h-185.300782c-4.140624 0-7.5 3.359376-7.5 7.5 0 4.144532 3.359376 7.5 7.5 7.5h308.242188c4.140625 0 7.5-3.355468 7.5-7.5 0-4.140624-3.359375-7.5-7.5-7.5zm0 0"/><path d="m170.136719 265.226562c0-4.144531-3.359375-7.5-7.5-7.5h-32.980469c-2.964844-11.027343-4.488281-22.449218-4.488281-33.988281 0-65.335937 48.78125-120.9375 113.46875-129.335937 4.105469-.53125 7.003906-4.292969 6.46875-8.402344-.53125-4.105469-4.289063-7.003906-8.402344-6.472656-72.136719 9.367187-126.535156 71.363281-126.535156 144.210937 0 11.5 1.355469 22.902344 4.007812 33.988281h-106.675781c-4.140625 0-7.5 3.355469-7.5 7.5 0 4.140626 3.359375 7.5 7.5 7.5h155.136719c4.140625 0 7.5-3.359374 7.5-7.5zm0 0"/></svg>